<svg width="192" height="106" viewBox="0 0 192 106" fill="none" xmlns="http://www.w3.org/2000/svg">
<ellipse cx="95.665" cy="52.7603" rx="95.665" ry="52.7603" fill="#FE5C2B"/>
<path d="M32.6227 81.7129C30.2142 82.0086 27.9847 81.925 25.9343 81.4621C23.921 80.9947 22.2763 80.3127 21.0002 79.4162C19.7566 78.4781 19.0688 77.4717 18.9369 76.3971C18.8732 75.8784 18.9347 75.3066 19.1212 74.6819C19.3403 74.0156 19.6657 73.449 20.0974 72.9823C20.5245 72.4785 21.0345 72.1902 21.6274 72.1174C22.2203 72.0446 22.8034 72.1986 23.3768 72.5796C23.9456 72.9235 24.5999 73.351 25.3397 73.8619C26.0749 74.3359 26.9515 74.736 27.9696 75.0624C28.983 75.3517 30.1938 75.4099 31.6019 75.237C32.7136 75.1005 33.7121 74.8087 34.5975 74.3614C35.5155 73.8726 36.2091 73.242 36.6785 72.4697C37.1849 71.6929 37.3699 70.7486 37.2334 69.637C37.0878 68.4512 36.65 67.4894 35.92 66.7515C35.19 66.0137 34.2512 65.4143 33.1039 64.9533C31.9565 64.4924 30.7187 64.0614 29.3906 63.6602C28.0625 63.2591 26.7113 62.8232 25.337 62.3525C23.9998 61.8772 22.7393 61.2609 21.5555 60.5035C20.4087 59.7416 19.4223 58.7531 18.596 57.5381C17.8068 56.3185 17.2962 54.7638 17.0642 52.874C16.8094 50.7989 16.9846 49.0096 17.5899 47.5059C18.2322 45.9978 19.1495 44.7379 20.3418 43.7264C21.5666 42.6733 22.9529 41.8636 24.5008 41.2974C26.0441 40.6942 27.6125 40.2948 29.2058 40.0991C30.0581 39.9945 31.0677 39.9457 32.2346 39.9529C33.434 39.9185 34.6285 39.9975 35.8182 40.1899C37.0449 40.3778 38.0652 40.7227 38.8791 41.2246C39.7255 41.6849 40.2056 42.3782 40.3193 43.3046C40.3694 43.7122 40.3196 44.2261 40.1701 44.8463C40.0576 45.4619 39.8086 46.0379 39.4231 46.5742C39.0746 47.106 38.5669 47.4128 37.8999 47.4947C37.307 47.5675 36.6937 47.4735 36.0599 47.2128C35.4585 46.9105 34.6742 46.6495 33.7069 46.4298C32.7721 46.1684 31.5265 46.1333 29.9702 46.3244C28.6733 46.4836 27.5636 46.7891 26.6411 47.2409C25.7186 47.6927 25.0552 48.2631 24.6508 48.9522C24.2419 49.6043 24.0943 50.3935 24.208 51.3198C24.3263 52.2833 24.7414 53.0598 25.4532 53.6494C26.2021 54.2345 27.1272 54.7228 28.2284 55.1141C29.3667 55.501 30.5976 55.8764 31.9212 56.2405C33.2448 56.6046 34.5797 57.0613 35.926 57.6107C37.3049 58.1184 38.5907 58.788 39.7836 59.6195C40.9765 60.451 41.9766 61.5506 42.784 62.9184C43.5868 64.2492 44.1157 65.9521 44.3704 68.0272C44.6935 70.6581 44.3921 72.9519 43.4663 74.9087C42.536 76.8283 41.1273 78.3742 39.24 79.5463C37.3853 80.6767 35.1795 81.3989 32.6227 81.7129ZM63.4206 77.7621C60.975 78.0624 58.7202 77.9255 56.6562 77.3514C54.5876 76.7403 52.8467 75.5812 51.4334 73.874C50.0527 72.1252 49.1712 69.6945 48.7891 66.5819L46.8986 51.1855C46.5164 48.0729 46.786 45.5197 47.7072 43.5259C48.6609 41.4905 50.0511 39.9469 51.8779 38.8951C53.7372 37.8017 55.9082 37.1026 58.3908 36.7977C60.8365 36.4975 63.0936 36.6529 65.1621 37.264C67.2632 37.8335 69.0041 38.9927 70.3849 40.7414C71.7611 42.4531 72.6403 44.8653 73.0224 47.9779L74.9129 63.3743C75.2951 66.4869 75.0278 69.0587 74.1111 71.0895C73.1899 73.0833 71.7812 74.6292 69.8848 75.7272C68.021 76.7835 65.8663 77.4618 63.4206 77.7621ZM62.6426 71.4257C64.4583 71.2028 65.8212 70.5088 66.7314 69.3439C67.6415 68.179 67.9601 66.4848 67.6871 64.2615L65.7967 48.8651C65.5237 46.6418 64.8047 45.0751 63.6398 44.165C62.4749 43.2548 60.9846 42.9112 59.1689 43.1342C57.3532 43.3571 55.9902 44.051 55.0801 45.216C54.207 46.3764 53.9069 48.0682 54.1799 50.2915L56.0704 65.6879C56.3434 67.9112 57.0438 69.4802 58.1717 70.3949C59.3366 71.305 60.8269 71.6486 62.6426 71.4257ZM95.1149 73.8706C92.8175 74.1526 90.6367 74.0066 88.5727 73.4326C86.5042 72.8214 84.7633 71.6623 83.35 69.9551C81.9693 68.2064 81.0878 65.7757 80.7056 62.6631L78.8152 47.2667C78.433 44.1541 78.7025 41.6008 79.6237 39.607C80.5775 37.5716 81.9862 36.0258 83.8501 34.9694C85.7093 33.876 87.8062 33.186 90.1407 32.8994C92.7345 32.5809 95.068 32.7457 97.1411 33.3939C99.2467 34.0005 100.951 35.0137 102.254 36.4335C103.593 37.8488 104.398 39.6495 104.666 41.8358C104.843 43.2809 104.665 44.2808 104.132 44.8353C103.593 45.3527 102.713 45.6865 101.49 45.8367C100.489 45.9595 99.6167 45.8974 98.8717 45.6504C98.1592 45.3617 97.7344 44.812 97.5972 44.0014C97.5426 43.5567 97.4048 43.0471 97.1838 42.4724C96.9953 41.8561 96.6794 41.2742 96.236 40.7269C95.7927 40.1795 95.1569 39.7498 94.3287 39.4377C93.5376 39.1211 92.475 39.0447 91.141 39.2085C89.2512 39.4405 87.872 40.1553 87.0035 41.3527C86.1304 42.5131 85.8281 44.1864 86.0965 46.3726L87.9869 61.769C88.2599 63.9923 88.9604 65.5613 90.0882 66.476C91.2532 67.3862 92.7991 67.723 94.7259 67.4864C95.9858 67.3317 96.9613 67.005 97.6523 66.5064C98.3434 66.0078 98.8193 65.4416 99.08 64.8078C99.3732 64.1323 99.5344 63.4543 99.5637 62.7737C99.63 62.0885 99.6638 61.4449 99.6651 60.8429C99.63 59.9445 99.9278 59.3061 100.558 58.9278C101.184 58.5124 101.979 58.2455 102.943 58.1272C104.202 57.9726 105.158 58.0997 105.81 58.5086C106.462 58.9175 106.875 59.826 107.048 61.2341C107.321 63.4574 106.985 65.4733 106.041 67.2818C105.134 69.0858 103.735 70.5553 101.843 71.6903C99.9515 72.8253 97.7087 73.5521 95.1149 73.8706ZM116.906 70.8564C116.016 70.9656 115.16 70.8827 114.336 70.6077C113.545 70.2911 113.102 69.7437 113.006 68.9656L108.584 32.9481C108.484 32.1329 108.784 31.513 109.484 31.0885C110.217 30.6224 111.028 30.3348 111.917 30.2256C112.843 30.1118 113.7 30.1947 114.486 30.4743C115.268 30.7168 115.709 31.2456 115.81 32.0609L120.232 68.0784C120.328 68.8565 120.03 69.4949 119.339 69.9935C118.643 70.4551 117.832 70.7427 116.906 70.8564ZM128.966 69.3757C128.299 69.4575 127.597 69.412 126.862 69.2391C126.126 69.0661 125.49 68.7869 124.953 68.4014C124.417 68.0159 124.112 67.5267 124.04 66.9338C124.026 66.8227 124.022 66.6351 124.027 66.3712L130.462 30.0926C130.621 29.2455 131.12 28.5636 131.959 28.0468C132.836 27.5254 133.793 27.201 134.83 27.0736C135.905 26.9417 136.912 27.0249 137.851 27.3233C138.791 27.6218 139.44 28.1626 139.799 28.946L154.82 62.5903C154.926 62.8406 154.985 63.0213 154.999 63.1325C155.067 63.6883 154.872 64.2389 154.412 64.7843C153.985 65.2881 153.435 65.713 152.763 66.0588C152.091 66.4046 151.421 66.6185 150.754 66.7004C150.161 66.7732 149.631 66.7442 149.164 66.6136C148.729 66.4413 148.403 66.0863 148.187 65.5487L145.167 58.4155L132.383 59.9852L131.234 67.6302C131.154 68.2042 130.905 68.6297 130.488 68.9066C130.066 69.1465 129.559 69.3029 128.966 69.3757ZM133.243 54.1247L142.914 52.9372L135.984 36.4671L133.243 54.1247ZM162.328 65.2793C161.549 65.3749 160.804 65.2783 160.092 64.9897C159.375 64.664 158.968 64.112 158.873 63.3339L154.45 27.3164C154.35 26.5012 154.65 25.8813 155.35 25.4568C156.083 24.9907 156.894 24.7031 157.783 24.5939C158.71 24.4801 159.566 24.563 160.353 24.8426C161.135 25.0851 161.576 25.6139 161.676 26.4292L165.607 58.4447L179.225 56.7727C179.966 56.6817 180.544 56.9492 180.96 57.5753C181.37 58.1642 181.626 58.8663 181.726 59.6816C181.821 60.4597 181.743 61.2028 181.492 61.9107C181.24 62.6186 180.744 63.0181 180.003 63.1091L162.328 65.2793Z" fill="white"/>
</svg>
